<svg id="visual" viewBox="0 0 960 540" width="960" height="540" xmlns="http://www.w3.org/2000/svg" xmlns:xlink="http://www.w3.org/1999/xlink" version="1.1"><g stroke-width="1" stroke-linejoin="bevel"><path d="M500 293L510 411L576 324Z" fill="#dee0e2" stroke="#dee0e2"></path><path d="M510 411L599 409L576 324Z" fill="#ebeced" stroke="#ebeced"></path><path d="M720 317L616 214L576 324Z" fill="#ebeced" stroke="#ebeced"></path><path d="M576 324L616 214L500 293Z" fill="#e4e6e7" stroke="#e4e6e7"></path><path d="M616 214L491 183L500 293Z" fill="#d0d4d6" stroke="#d0d4d6"></path><path d="M346 305L362 415L500 293Z" fill="#b7bcc0" stroke="#b7bcc0"></path><path d="M500 293L362 415L510 411Z" fill="#d7dadc" stroke="#d7dadc"></path><path d="M631 540L692 421L599 409Z" fill="#dee0e2" stroke="#dee0e2"></path><path d="M491 183L366 259L500 293Z" fill="#dee0e2" stroke="#dee0e2"></path><path d="M366 259L346 305L500 293Z" fill="#f8f8f8" stroke="#f8f8f8"></path><path d="M631 540L599 409L510 411Z" fill="#dee0e2" stroke="#dee0e2"></path><path d="M599 409L720 317L576 324Z" fill="#f1f2f2" stroke="#f1f2f2"></path><path d="M692 421L720 317L599 409Z" fill="#d0d4d6" stroke="#d0d4d6"></path><path d="M362 415L441 540L510 411Z" fill="#b7bcc0" stroke="#b7bcc0"></path><path d="M441 540L631 540L510 411Z" fill="#d0d4d6" stroke="#d0d4d6"></path><path d="M748 173L620 126L616 214Z" fill="#f1f2f2" stroke="#f1f2f2"></path><path d="M616 214L620 126L491 183Z" fill="#d0d4d6" stroke="#d0d4d6"></path><path d="M362 415L356 540L441 540Z" fill="#b7bcc0" stroke="#b7bcc0"></path><path d="M225 469L356 540L362 415Z" fill="#b7bcc0" stroke="#b7bcc0"></path><path d="M246 187L262 335L346 305Z" fill="#bdc2c6" stroke="#bdc2c6"></path><path d="M346 305L262 335L362 415Z" fill="#c4c8cb" stroke="#c4c8cb"></path><path d="M620 126L507 89L491 183Z" fill="#e4e6e7" stroke="#e4e6e7"></path><path d="M491 183L398 90L366 259Z" fill="#b7bcc0" stroke="#b7bcc0"></path><path d="M366 259L246 187L346 305Z" fill="#dee0e2" stroke="#dee0e2"></path><path d="M507 89L398 90L491 183Z" fill="#dee0e2" stroke="#dee0e2"></path><path d="M720 317L748 173L616 214Z" fill="#b7bcc0" stroke="#b7bcc0"></path><path d="M631 540L747 540L692 421Z" fill="#c4c8cb" stroke="#c4c8cb"></path><path d="M692 421L826 312L720 317Z" fill="#bdc2c6" stroke="#bdc2c6"></path><path d="M720 317L826 312L748 173Z" fill="#b7bcc0" stroke="#b7bcc0"></path><path d="M811 473L826 312L692 421Z" fill="#c4c8cb" stroke="#c4c8cb"></path><path d="M747 540L811 473L692 421Z" fill="#d0d4d6" stroke="#d0d4d6"></path><path d="M262 335L225 469L362 415Z" fill="#d0d4d6" stroke="#d0d4d6"></path><path d="M398 90L246 187L366 259Z" fill="#caced1" stroke="#caced1"></path><path d="M262 335L133 390L225 469Z" fill="#f1f2f2" stroke="#f1f2f2"></path><path d="M748 173L742 105L620 126Z" fill="#f1f2f2" stroke="#f1f2f2"></path><path d="M629 0L504 0L507 89Z" fill="#d0d4d6" stroke="#d0d4d6"></path><path d="M805 126L742 105L748 173Z" fill="#ebeced" stroke="#ebeced"></path><path d="M225 469L247 540L356 540Z" fill="#f1f2f2" stroke="#f1f2f2"></path><path d="M747 540L811 540L811 473Z" fill="#d0d4d6" stroke="#d0d4d6"></path><path d="M960 431L960 330L826 312Z" fill="#caced1" stroke="#caced1"></path><path d="M507 89L504 0L398 90Z" fill="#f1f2f2" stroke="#f1f2f2"></path><path d="M398 90L195 127L246 187Z" fill="#b7bcc0" stroke="#b7bcc0"></path><path d="M629 0L507 89L620 126Z" fill="#bdc2c6" stroke="#bdc2c6"></path><path d="M960 212L844 205L826 312Z" fill="#caced1" stroke="#caced1"></path><path d="M826 312L844 205L748 173Z" fill="#f8f8f8" stroke="#f8f8f8"></path><path d="M844 205L805 126L748 173Z" fill="#d0d4d6" stroke="#d0d4d6"></path><path d="M742 105L629 0L620 126Z" fill="#bdc2c6" stroke="#bdc2c6"></path><path d="M752 0L629 0L742 105Z" fill="#caced1" stroke="#caced1"></path><path d="M504 0L375 0L398 90Z" fill="#bdc2c6" stroke="#bdc2c6"></path><path d="M132 307L133 390L262 335Z" fill="#bdc2c6" stroke="#bdc2c6"></path><path d="M225 469L118 540L247 540Z" fill="#f8f8f8" stroke="#f8f8f8"></path><path d="M130 199L132 307L246 187Z" fill="#f1f2f2" stroke="#f1f2f2"></path><path d="M246 187L132 307L262 335Z" fill="#e4e6e7" stroke="#e4e6e7"></path><path d="M236 0L195 127L398 90Z" fill="#f8f8f8" stroke="#f8f8f8"></path><path d="M195 127L130 199L246 187Z" fill="#bdc2c6" stroke="#bdc2c6"></path><path d="M0 437L118 540L133 390Z" fill="#ebeced" stroke="#ebeced"></path><path d="M820 0L752 0L742 105Z" fill="#c4c8cb" stroke="#c4c8cb"></path><path d="M820 0L742 105L805 126Z" fill="#d0d4d6" stroke="#d0d4d6"></path><path d="M960 431L826 312L811 473Z" fill="#f1f2f2" stroke="#f1f2f2"></path><path d="M844 205L960 102L805 126Z" fill="#e4e6e7" stroke="#e4e6e7"></path><path d="M0 358L133 390L132 307Z" fill="#dee0e2" stroke="#dee0e2"></path><path d="M133 390L118 540L225 469Z" fill="#e4e6e7" stroke="#e4e6e7"></path><path d="M960 540L960 431L811 473Z" fill="#d0d4d6" stroke="#d0d4d6"></path><path d="M375 0L236 0L398 90Z" fill="#f8f8f8" stroke="#f8f8f8"></path><path d="M195 127L84 143L130 199Z" fill="#f1f2f2" stroke="#f1f2f2"></path><path d="M960 330L960 212L826 312Z" fill="#e4e6e7" stroke="#e4e6e7"></path><path d="M960 102L820 0L805 126Z" fill="#b7bcc0" stroke="#b7bcc0"></path><path d="M811 540L960 540L811 473Z" fill="#e4e6e7" stroke="#e4e6e7"></path><path d="M104 0L84 143L195 127Z" fill="#d0d4d6" stroke="#d0d4d6"></path><path d="M0 207L0 358L132 307Z" fill="#b7bcc0" stroke="#b7bcc0"></path><path d="M960 212L960 102L844 205Z" fill="#d7dadc" stroke="#d7dadc"></path><path d="M0 207L132 307L130 199Z" fill="#dee0e2" stroke="#dee0e2"></path><path d="M0 358L0 437L133 390Z" fill="#d7dadc" stroke="#d7dadc"></path><path d="M0 124L0 207L84 143Z" fill="#f8f8f8" stroke="#f8f8f8"></path><path d="M84 143L0 207L130 199Z" fill="#f1f2f2" stroke="#f1f2f2"></path><path d="M236 0L104 0L195 127Z" fill="#bdc2c6" stroke="#bdc2c6"></path><path d="M0 437L0 540L118 540Z" fill="#caced1" stroke="#caced1"></path><path d="M960 102L960 0L820 0Z" fill="#f8f8f8" stroke="#f8f8f8"></path><path d="M104 0L0 124L84 143Z" fill="#dee0e2" stroke="#dee0e2"></path><path d="M104 0L0 0L0 124Z" fill="#ebeced" stroke="#ebeced"></path></g></svg>