<?xml version="1.0" encoding="UTF-8"?>
<svg id="Capa_1" data-name="Capa 1" xmlns="http://www.w3.org/2000/svg" viewBox="0 0 32 32">
  <defs>
    <style>
      .cls-1 {
        fill: #fff;
      }

      .cls-2 {
        fill: #f59a18;
      }
    </style>
  </defs>
  <path class="cls-1" d="m5.8,16.52c.03-.67.1-1.33.27-1.97.06-.21.14-.42.23-.61.08-.18.22-.28.43-.26.29.03.59.07.88.11.09.01.18.05.26.09.31.15.37.28.27.61-.13.44-.26.89-.38,1.33-.08.28-.07.57,0,.86.06.2.14.24.33.15.33-.16.55-.42.65-.77.17-.62.25-1.25.16-1.89-.04-.27.05-.47.3-.61.27-.15.55-.27.87-.27.22,0,.34.07.4.28.06.19.11.38.1.58-.01,1.08-.16,2.13-.62,3.12-.35.74-.88,1.3-1.71,1.48-.73.16-1.41.04-1.96-.51-.36-.37-.47-.84-.49-1.34,0-.13,0-.25,0-.38Z"/>
  <path class="cls-1" d="m26.25,16.63c.02-.81.08-1.6.34-2.38.01-.04.03-.08.04-.11.18-.44.29-.51.76-.46.22.02.44.05.65.1.12.02.23.08.33.14.23.13.28.26.21.52-.13.47-.3.94-.39,1.42-.05.26-.02.54,0,.81.03.22.14.26.33.16.33-.16.54-.41.64-.76.18-.62.26-1.26.17-1.9-.04-.31.08-.52.36-.64.23-.09.48-.19.72-.23.31-.05.45.06.51.36.05.27.09.56.07.84-.05.93-.19,1.85-.59,2.71-.36.77-.89,1.35-1.75,1.55-.53.12-1.05.05-1.53-.2-.56-.3-.81-.82-.88-1.43-.02-.16,0-.32,0-.49Z"/>
  <path class="cls-1" d="m2.88,14.68c-.03.24-.05.47-.08.74.32,0,.61,0,.91,0,.13,0,.27,0,.4.02.23.02.37.17.38.4,0,.08,0,.16-.01.24-.1.58-.19.67-.78.72-.29.02-.59,0-.92,0,.05.36.09.68.14,1,.02.15.07.29.1.44.05.24-.03.4-.26.47-.42.12-.83.07-1.22-.11-.18-.08-.3-.23-.34-.42-.08-.4-.17-.79-.19-1.19-.05-.97,0-1.93.25-2.87.02-.09.06-.19.1-.28.11-.31.33-.47.66-.53.9-.15,1.8-.2,2.7,0,.79.18.96.42.92,1.23-.02.45-.25.6-.67.45-.67-.24-1.37-.31-2.1-.31Z"/>
  <path class="cls-1" d="m23.32,14.68c-.02.17-.04.34-.06.51,0,.06,0,.13,0,.23.29,0,.58,0,.86,0,.14,0,.29,0,.43.02.22.02.38.16.37.39-.01.23-.05.46-.12.68-.08.23-.31.27-.52.29-.34.03-.69.04-1.08.05.07.41.14.83.22,1.24,0,.05.03.09.03.13.06.29-.04.46-.33.52-.37.08-.73.04-1.07-.09-.22-.08-.35-.26-.42-.48-.15-.46-.18-.93-.19-1.4-.01-.84.03-1.68.22-2.5.02-.08.04-.16.07-.23.12-.42.35-.67.82-.74.92-.12,1.84-.18,2.75.06.1.03.2.07.29.1.31.11.46.33.47.66,0,.17.02.34,0,.5-.03.38-.26.52-.61.39-.66-.24-1.35-.32-2.04-.33-.02,0-.05,0-.09,0Z"/>
  <g>
    <path class="cls-2" d="m12.15,13.4c1.08-.01,2.05.29,2.84,1.04.7.67,1.15,1.47.81,2.46-.35,1.03-1.14,1.6-2.21,1.8-.81.15-1.61-.01-2.41-.11-.28-.04-.44-.22-.44-.49-.03-1.31-.05-2.63.23-3.92.16-.74.24-.78,1-.78.06,0,.12,0,.18,0Zm.96,3.47s0,0,0,.01c.16-.01.31-.01.47-.04.34-.05.55-.27.58-.6.03-.3-.17-.49-.41-.62-.16-.08-.33-.14-.5-.2-.64-.2-.69-.17-.78.49-.02.15-.03.31-.06.47-.05.35.12.49.45.49.08,0,.17,0,.25,0Z"/>
    <path class="cls-2" d="m18.03,18.77c-1.15.02-1.37-.08-1.61-.95-.31-1.14-.45-2.31-.23-3.49.07-.36.26-.55.62-.66.64-.18,1.28-.33,1.94-.39.36-.03.72-.02,1.08.05.52.1.75.33.81.86.06.54-.13.75-.67.67-.53-.08-1.06-.07-1.59-.06-.11,0-.22.02-.32.05-.2.06-.18.24-.16.39.01.16.13.19.26.18.31-.02.62-.05.93-.07.29-.02.53.06.6.38.08.39-.08.75-.38.88-.28.12-.58.16-.88.2-.14.02-.31,0-.31.21,0,.24.19.2.34.21.6.01,1.17-.12,1.74-.28.52-.15.73-.11.85.17.2.46.05.98-.34,1.2-.45.25-.96.3-1.46.36-.47.06-.94.06-1.23.08Z"/>
  </g>
</svg>