<svg id="visual" viewBox="0 0 1920 200" width="1920" height="200" xmlns="http://www.w3.org/2000/svg" xmlns:xlink="http://www.w3.org/1999/xlink" version="1.1"><path d="M0 86L45.7 86.2C91.3 86.3 182.7 86.7 274.2 87C365.7 87.3 457.3 87.7 548.8 94.2C640.3 100.7 731.7 113.3 823 113.7C914.3 114 1005.7 102 1097 108.5C1188.3 115 1279.7 140 1371.2 148.2C1462.7 156.3 1554.3 147.7 1645.8 132.7C1737.3 117.7 1828.7 96.3 1874.3 85.7L1920 75L1920 0L1874.3 0C1828.7 0 1737.3 0 1645.8 0C1554.3 0 1462.7 0 1371.2 0C1279.7 0 1188.3 0 1097 0C1005.7 0 914.3 0 823 0C731.7 0 640.3 0 548.8 0C457.3 0 365.7 0 274.2 0C182.7 0 91.3 0 45.7 0L0 0Z" fill="#eeeeee"></path><path d="M0 56L45.7 59.5C91.3 63 182.7 70 274.2 82C365.7 94 457.3 111 548.8 119.7C640.3 128.3 731.7 128.7 823 118.2C914.3 107.7 1005.7 86.3 1097 76.3C1188.3 66.3 1279.7 67.7 1371.2 67C1462.7 66.3 1554.3 63.7 1645.8 72.3C1737.3 81 1828.7 101 1874.3 111L1920 121L1920 0L1874.3 0C1828.7 0 1737.3 0 1645.8 0C1554.3 0 1462.7 0 1371.2 0C1279.7 0 1188.3 0 1097 0C1005.7 0 914.3 0 823 0C731.7 0 640.3 0 548.8 0C457.3 0 365.7 0 274.2 0C182.7 0 91.3 0 45.7 0L0 0Z" fill="#f9f9f9"></path><path d="M0 93L45.7 92C91.3 91 182.7 89 274.2 85C365.7 81 457.3 75 548.8 67.7C640.3 60.3 731.7 51.7 823 53.8C914.3 56 1005.7 69 1097 77.5C1188.3 86 1279.7 90 1371.2 83.3C1462.7 76.7 1554.3 59.3 1645.8 54.2C1737.3 49 1828.7 56 1874.3 59.5L1920 63L1920 0L1874.3 0C1828.7 0 1737.3 0 1645.8 0C1554.3 0 1462.7 0 1371.2 0C1279.7 0 1188.3 0 1097 0C1005.7 0 914.3 0 823 0C731.7 0 640.3 0 548.8 0C457.3 0 365.7 0 274.2 0C182.7 0 91.3 0 45.7 0L0 0Z" fill="#ffffff"></path><path d="M0 25L45.7 23.5C91.3 22 182.7 19 274.2 25.5C365.7 32 457.3 48 548.8 49.2C640.3 50.3 731.7 36.7 823 34.8C914.3 33 1005.7 43 1097 50.3C1188.3 57.7 1279.7 62.3 1371.2 58.7C1462.7 55 1554.3 43 1645.8 38.3C1737.3 33.7 1828.7 36.3 1874.3 37.7L1920 39L1920 0L1874.3 0C1828.7 0 1737.3 0 1645.8 0C1554.3 0 1462.7 0 1371.2 0C1279.7 0 1188.3 0 1097 0C1005.7 0 914.3 0 823 0C731.7 0 640.3 0 548.8 0C457.3 0 365.7 0 274.2 0C182.7 0 91.3 0 45.7 0L0 0Z" fill="#ffffff"></path></svg>