<svg id="visual" viewBox="0 0 1920 200" width="1920" height="200" xmlns="http://www.w3.org/2000/svg" xmlns:xlink="http://www.w3.org/1999/xlink" version="1.1"><rect x="0" y="0" width="1920" height="200" fill="#fff"></rect><path d="M0 112L45.7 111.8C91.3 111.7 182.7 111.3 274.2 111C365.7 110.7 457.3 110.3 548.8 103.8C640.3 97.3 731.7 84.7 823 84.3C914.3 84 1005.7 96 1097 89.5C1188.3 83 1279.7 58 1371.2 49.8C1462.7 41.7 1554.3 50.3 1645.8 65.3C1737.3 80.3 1828.7 101.7 1874.3 112.3L1920 123L1920 201L1874.3 201C1828.7 201 1737.3 201 1645.8 201C1554.3 201 1462.7 201 1371.2 201C1279.7 201 1188.3 201 1097 201C1005.7 201 914.3 201 823 201C731.7 201 640.3 201 548.8 201C457.3 201 365.7 201 274.2 201C182.7 201 91.3 201 45.7 201L0 201Z" fill="#ffffff"></path><path d="M0 142L45.7 138.5C91.3 135 182.7 128 274.2 116C365.7 104 457.3 87 548.8 78.3C640.3 69.7 731.7 69.3 823 79.8C914.3 90.3 1005.7 111.7 1097 121.7C1188.3 131.7 1279.7 130.3 1371.2 131C1462.7 131.7 1554.3 134.3 1645.8 125.7C1737.3 117 1828.7 97 1874.3 87L1920 77L1920 201L1874.3 201C1828.7 201 1737.3 201 1645.8 201C1554.3 201 1462.7 201 1371.2 201C1279.7 201 1188.3 201 1097 201C1005.7 201 914.3 201 823 201C731.7 201 640.3 201 548.8 201C457.3 201 365.7 201 274.2 201C182.7 201 91.3 201 45.7 201L0 201Z" fill="#b1b1b1"></path><path d="M0 105L45.7 106C91.3 107 182.7 109 274.2 113C365.7 117 457.3 123 548.8 130.3C640.3 137.7 731.7 146.3 823 144.2C914.3 142 1005.7 129 1097 120.5C1188.3 112 1279.7 108 1371.2 114.7C1462.7 121.3 1554.3 138.7 1645.8 143.8C1737.3 149 1828.7 142 1874.3 138.5L1920 135L1920 201L1874.3 201C1828.7 201 1737.3 201 1645.8 201C1554.3 201 1462.7 201 1371.2 201C1279.7 201 1188.3 201 1097 201C1005.7 201 914.3 201 823 201C731.7 201 640.3 201 548.8 201C457.3 201 365.7 201 274.2 201C182.7 201 91.3 201 45.7 201L0 201Z" fill="#686868"></path><path d="M0 173L45.7 174.5C91.3 176 182.7 179 274.2 172.5C365.7 166 457.3 150 548.8 148.8C640.3 147.7 731.7 161.3 823 163.2C914.3 165 1005.7 155 1097 147.7C1188.3 140.3 1279.7 135.7 1371.2 139.3C1462.7 143 1554.3 155 1645.8 159.7C1737.3 164.3 1828.7 161.7 1874.3 160.3L1920 159L1920 201L1874.3 201C1828.7 201 1737.3 201 1645.8 201C1554.3 201 1462.7 201 1371.2 201C1279.7 201 1188.3 201 1097 201C1005.7 201 914.3 201 823 201C731.7 201 640.3 201 548.8 201C457.3 201 365.7 201 274.2 201C182.7 201 91.3 201 45.7 201L0 201Z" fill="#1f2020"></path></svg>